# xmcd CD database file
#
# Track frame offsets:
#	150
#	24727
#	43695
#	64722
#	84757
#	105620
#	127222
#	146095
#	168282
#	188387
#	209055
#	225327
#	247890
#
# Disc length: 3599 seconds
#
# Revision: 3
# Processed by: cddbd v1.5.1PL0 Copyright (c) Steve Scherf et al.
# Submitted via: CDex 1.51
#
DISCID=aa0e0d0d
DTITLE=Johnny Adams - Man of My Word
DYEAR=1998
DGENRE=Blues
TTITLE0=Even Now
TTITLE1=It Ain't The Same Thing
TTITLE2=This Time I'm Gone For Good
TTITLE3=Going Out of My Mind Sale
TTITLE4=Now You Know
TTITLE5=Up and Down World
TTITLE6=I Don't Want To Know
TTITLE7=Man of My Word
TTITLE8=You Don't Miss You Water
TTITLE9=Bulldog Break His Chain
TTITLE10=It Tears Me Up
TTITLE11=Looking Back
TTITLE12=Never Alone
EXTD=YEAR: 1998
EXTT0=
EXTT1=
EXTT2=
EXTT3=
EXTT4=
EXTT5=
EXTT6=
EXTT7=
EXTT8=
EXTT9=
EXTT10=
EXTT11=duet with Aaron Neville
EXTT12=
PLAYORDER=
